<svg xmlns="http://www.w3.org/2000/svg" xmlns:xlink="http://www.w3.org/1999/xlink" contentStyleType="text/css" height="999px" preserveAspectRatio="none" style="width:1827px;height:999px;background:#FFFFFF;" version="1.1" viewBox="0 0 1827 999" width="1827px" zoomAndPan="magnify"><defs/><g><!--class Vehiculo--><g id="elem_Vehiculo"><rect codeLine="1" fill="#F1F1F1" height="420.4219" id="Vehiculo" rx="2.5" ry="2.5" style="stroke:#181818;stroke-width:0.5;" width="403.4053" x="1044" y="371"/><ellipse cx="1214.6011" cy="387" fill="#A9DCDF" rx="11" ry="11" style="stroke:#181818;stroke-width:1.0;"/><path d="M1216.7886,388.7656 L1212.6479,388.7656 L1212.2261,389.7969 L1212.6479,389.7969 Q1213.2573,389.7969 1213.5229,390.0313 Q1213.7886,390.2656 1213.7886,390.6563 Q1213.7886,391.0313 1213.5229,391.2656 Q1213.2573,391.5 1212.6479,391.5 L1210.3511,391.5 Q1209.7417,391.5 1209.4917,391.2656 Q1209.2261,391.0313 1209.2261,390.6406 Q1209.2261,390.2656 1209.5073,390.0313 Q1209.7729,389.7813 1210.3979,389.7969 L1213.0698,383.1406 L1211.9604,383.1406 Q1211.3511,383.1406 1211.0854,382.9063 Q1210.8198,382.6719 1210.8198,382.2813 Q1210.8198,381.9063 1211.0854,381.6719 Q1211.3511,381.4375 1211.9604,381.4375 L1215.6323,381.4375 L1219.0229,389.7969 Q1219.6167,389.7969 1219.8042,389.9375 Q1220.1948,390.2031 1220.1948,390.6563 Q1220.1948,391.0313 1219.9292,391.2656 Q1219.6792,391.5 1219.0698,391.5 L1216.7729,391.5 Q1216.1636,391.5 1215.8979,391.2656 Q1215.6323,391.0313 1215.6323,390.6406 Q1215.6323,390.2656 1215.8979,390.0313 Q1216.1636,389.7969 1216.7729,389.7969 L1217.1948,389.7969 L1216.7886,388.7656 Z M1216.0698,387.0625 L1214.7104,383.6875 L1213.3354,387.0625 L1216.0698,387.0625 Z " fill="#000000"/><text fill="#000000" font-family="sans-serif" font-size="14" font-style="italic" lengthAdjust="spacing" textLength="53.7031" x="1235.1011" y="392.7969">Vehiculo</text><line style="stroke:#181818;stroke-width:0.5;" x1="1045" x2="1446.4053" y1="403" y2="403"/><rect fill="none" height="6" style="stroke:#C82930;stroke-width:1.0;" width="6" x="1052" y="414.8105"/><text fill="#000000" font-family="sans-serif" font-size="14" lengthAdjust="spacing" textLength="101.1445" x="1064" y="422.1074">matricula: String</text><rect fill="none" height="6" style="stroke:#C82930;stroke-width:1.0;" width="6" x="1052" y="433.4316"/><text fill="#000000" font-family="sans-serif" font-size="14" lengthAdjust="spacing" textLength="83.248" x="1064" y="440.7285">marca: String</text><rect fill="none" height="6" style="stroke:#C82930;stroke-width:1.0;" width="6" x="1052" y="452.0527"/><text fill="#000000" font-family="sans-serif" font-size="14" lengthAdjust="spacing" textLength="90.2686" x="1064" y="459.3496">modelo: String</text><rect fill="none" height="6" style="stroke:#C82930;stroke-width:1.0;" width="6" x="1052" y="470.6738"/><text fill="#000000" font-family="sans-serif" font-size="14" lengthAdjust="spacing" textLength="129.1855" x="1064" y="477.9707">annioFabricacion: int</text><rect fill="none" height="6" style="stroke:#C82930;stroke-width:1.0;" width="6" x="1052" y="489.2949"/><text fill="#000000" font-family="sans-serif" font-size="14" lengthAdjust="spacing" textLength="90.2549" x="1064" y="496.5918">kilometraje: int</text><rect fill="none" height="6" style="stroke:#C82930;stroke-width:1.0;" width="6" x="1052" y="507.916"/><text fill="#000000" font-family="sans-serif" font-size="14" lengthAdjust="spacing" textLength="87.9512" x="1064" y="515.2129">precio: double</text><rect fill="none" height="6" style="stroke:#C82930;stroke-width:1.0;" width="6" x="1052" y="526.5371"/><text fill="#000000" font-family="sans-serif" font-size="14" lengthAdjust="spacing" textLength="147.1025" x="1064" y="533.834">estado: EstadoVehiculo</text><rect fill="none" height="6" style="stroke:#C82930;stroke-width:1.0;" width="6" x="1052" y="545.1582"/><text fill="#000000" font-family="sans-serif" font-size="14" lengthAdjust="spacing" textLength="126.0752" x="1064" y="552.4551">propietario: Persona</text><line style="stroke:#181818;stroke-width:0.5;" x1="1045" x2="1446.4053" y1="559.9688" y2="559.9688"/><ellipse cx="1055" cy="574.7793" fill="#84BE84" rx="3" ry="3" style="stroke:#038048;stroke-width:1.0;"/><text fill="#000000" font-family="sans-serif" font-size="14" lengthAdjust="spacing" textLength="301.1641" x="1064" y="579.0762">registrarVehiculo(nuevoVehiculo: Vehiculo): void</text><ellipse cx="1055" cy="593.4004" fill="#84BE84" rx="3" ry="3" style="stroke:#038048;stroke-width:1.0;"/><text fill="#000000" font-family="sans-serif" font-size="14" lengthAdjust="spacing" textLength="136.9375" x="1064" y="597.6973">listarVehiculo(): String</text><ellipse cx="1055" cy="612.0215" fill="#84BE84" rx="3" ry="3" style="stroke:#038048;stroke-width:1.0;"/><text fill="#000000" font-family="sans-serif" font-size="14" lengthAdjust="spacing" textLength="250.5439" x="1064" y="616.3184">buscarVehiculo(matricula: String): String</text><ellipse cx="1055" cy="630.6426" fill="#84BE84" rx="3" ry="3" style="stroke:#038048;stroke-width:1.0;"/><text fill="#000000" font-family="sans-serif" font-size="14" lengthAdjust="spacing" textLength="377.4053" x="1064" y="634.9395">asignarVehiculo(matricula: String, propietario: Persona): void</text><ellipse cx="1055" cy="649.2637" fill="#84BE84" rx="3" ry="3" style="stroke:#038048;stroke-width:1.0;"/><text fill="#000000" font-family="sans-serif" font-size="14" lengthAdjust="spacing" textLength="252.8682" x="1064" y="653.5605">resumenRiesgo(matricula: String): String</text><ellipse cx="1055" cy="667.8848" fill="#84BE84" rx="3" ry="3" style="stroke:#038048;stroke-width:1.0;"/><text fill="#000000" font-family="sans-serif" font-size="14" lengthAdjust="spacing" textLength="363.3643" x="1064" y="672.1816">actualizarKilometraje(matricula: String, nuevoKm: int): void</text><ellipse cx="1055" cy="686.5059" fill="#84BE84" rx="3" ry="3" style="stroke:#038048;stroke-width:1.0;"/><text fill="#000000" font-family="sans-serif" font-size="14" lengthAdjust="spacing" textLength="86.3721" x="1064" y="690.8027">getAnios(): int</text><ellipse cx="1055" cy="705.127" fill="#84BE84" rx="3" ry="3" style="stroke:#038048;stroke-width:1.0;"/><text fill="#000000" font-family="sans-serif" font-size="14" lengthAdjust="spacing" textLength="168.8271" x="1064" y="709.4238">mostrarPropietario(): String</text><ellipse cx="1055" cy="723.748" fill="#84BE84" rx="3" ry="3" style="stroke:#038048;stroke-width:1.0;"/><text fill="#000000" font-family="sans-serif" font-size="14" lengthAdjust="spacing" textLength="174.2617" x="1064" y="728.0449">mostrarDescripcion(): String</text><ellipse cx="1055" cy="742.3691" fill="#84BE84" rx="3" ry="3" style="stroke:#038048;stroke-width:1.0;"/><text fill="#000000" font-family="sans-serif" font-size="14" lengthAdjust="spacing" textLength="146.2754" x="1064" y="746.666">mostrarPrecio(): double</text><ellipse cx="1055" cy="760.9902" fill="#84BE84" rx="3" ry="3" style="stroke:#038048;stroke-width:1.0;"/><text fill="#000000" font-family="sans-serif" font-size="14" lengthAdjust="spacing" textLength="146.3027" x="1064" y="765.2871">calculoRiesgo(): double</text><ellipse cx="1055" cy="779.6113" fill="#84BE84" rx="3" ry="3" style="stroke:#038048;stroke-width:1.0;"/><text fill="#000000" font-family="sans-serif" font-size="14" lengthAdjust="spacing" textLength="184.4336" x="1064" y="783.9082">calculoDepreciacion(): double</text></g><!--class Coche--><g id="elem_Coche"><rect codeLine="23" fill="#F1F1F1" height="122.4844" id="Coche" rx="2.5" ry="2.5" style="stroke:#181818;stroke-width:0.5;" width="239.2129" x="763" y="189"/><ellipse cx="858.1221" cy="205" fill="#ADD1B2" rx="11" ry="11" style="stroke:#181818;stroke-width:1.0;"/><path d="M860.8877,200.875 Q861.0439,200.6563 861.2314,200.5469 Q861.4189,200.4375 861.6377,200.4375 Q862.0127,200.4375 862.2471,200.7031 Q862.4814,200.9531 862.4814,201.5625 L862.4814,203.0156 Q862.4814,203.625 862.2471,203.8906 Q862.0127,204.1563 861.6377,204.1563 Q861.2939,204.1563 861.0908,203.9531 Q860.8877,203.7656 860.7783,203.25 Q860.7314,202.8906 860.5439,202.7031 Q860.2158,202.3281 859.6064,202.1094 Q858.9971,201.8906 858.3721,201.8906 Q857.6064,201.8906 856.9658,202.2188 Q856.3408,202.5469 855.8408,203.2969 Q855.3564,204.0469 855.3564,205.0781 L855.3564,206.1719 Q855.3564,207.4063 856.2471,208.2344 Q857.1377,209.0469 858.7314,209.0469 Q859.6689,209.0469 860.3252,208.7969 Q860.7158,208.6406 861.1377,208.2031 Q861.4033,207.9375 861.5439,207.8594 Q861.7002,207.7813 861.9033,207.7813 Q862.2314,207.7813 862.4814,208.0469 Q862.7471,208.2969 862.7471,208.6406 Q862.7471,208.9844 862.4033,209.3906 Q861.9033,209.9688 861.1064,210.2969 Q860.0283,210.75 858.7314,210.75 Q857.2158,210.75 856.0127,210.125 Q855.0283,209.625 854.3408,208.5625 Q853.6533,207.4844 853.6533,206.2031 L853.6533,205.0469 Q853.6533,203.7188 854.2627,202.5781 Q854.8877,201.4219 855.9814,200.8125 Q857.0752,200.1875 858.3096,200.1875 Q859.0439,200.1875 859.6846,200.3594 Q860.3408,200.5156 860.8877,200.875 Z " fill="#000000"/><text fill="#000000" font-family="sans-serif" font-size="14" lengthAdjust="spacing" textLength="40.4688" x="878.6221" y="210.7969">Coche</text><line style="stroke:#181818;stroke-width:0.5;" x1="764" x2="1001.2129" y1="221" y2="221"/><rect fill="none" height="6" style="stroke:#C82930;stroke-width:1.0;" width="6" x="771" y="232.8105"/><text fill="#000000" font-family="sans-serif" font-size="14" lengthAdjust="spacing" textLength="98.0479" x="783" y="240.1074">numPuertas: int</text><rect fill="none" height="6" style="stroke:#C82930;stroke-width:1.0;" width="6" x="771" y="251.4316"/><text fill="#000000" font-family="sans-serif" font-size="14" lengthAdjust="spacing" textLength="213.2129" x="783" y="258.7285">tipoCombustible: TipoCombustible</text><rect fill="none" height="6" style="stroke:#C82930;stroke-width:1.0;" width="6" x="771" y="270.0527"/><text fill="#000000" font-family="sans-serif" font-size="14" lengthAdjust="spacing" textLength="140.8613" x="783" y="277.3496">capacidadMaletero: int</text><rect fill="none" height="6" style="stroke:#C82930;stroke-width:1.0;" width="6" x="771" y="288.6738"/><text fill="#000000" font-family="sans-serif" font-size="14" lengthAdjust="spacing" textLength="110.4824" x="783" y="295.9707">traccion: Traccion</text><line style="stroke:#181818;stroke-width:0.5;" x1="764" x2="1001.2129" y1="303.4844" y2="303.4844"/></g><!--class Sedan--><g id="elem_Sedan"><rect codeLine="29" fill="#F1F1F1" height="85.2422" id="Sedan" rx="2.5" ry="2.5" style="stroke:#181818;stroke-width:0.5;" width="185.5098" x="474.5" y="25.5"/><ellipse cx="542.7637" cy="41.5" fill="#ADD1B2" rx="11" ry="11" style="stroke:#181818;stroke-width:1.0;"/><path d="M545.5293,37.375 Q545.6855,37.1563 545.873,37.0469 Q546.0605,36.9375 546.2793,36.9375 Q546.6543,36.9375 546.8887,37.2031 Q547.123,37.4531 547.123,38.0625 L547.123,39.5156 Q547.123,40.125 546.8887,40.3906 Q546.6543,40.6563 546.2793,40.6563 Q545.9355,40.6563 545.7324,40.4531 Q545.5293,40.2656 545.4199,39.75 Q545.373,39.3906 545.1855,39.2031 Q544.8574,38.8281 544.248,38.6094 Q543.6387,38.3906 543.0137,38.3906 Q542.248,38.3906 541.6074,38.7188 Q540.9824,39.0469 540.4824,39.7969 Q539.998,40.5469 539.998,41.5781 L539.998,42.6719 Q539.998,43.9063 540.8887,44.7344 Q541.7793,45.5469 543.373,45.5469 Q544.3105,45.5469 544.9668,45.2969 Q545.3574,45.1406 545.7793,44.7031 Q546.0449,44.4375 546.1855,44.3594 Q546.3418,44.2813 546.5449,44.2813 Q546.873,44.2813 547.123,44.5469 Q547.3887,44.7969 547.3887,45.1406 Q547.3887,45.4844 547.0449,45.8906 Q546.5449,46.4688 545.748,46.7969 Q544.6699,47.25 543.373,47.25 Q541.8574,47.25 540.6543,46.625 Q539.6699,46.125 538.9824,45.0625 Q538.2949,43.9844 538.2949,42.7031 L538.2949,41.5469 Q538.2949,40.2188 538.9043,39.0781 Q539.5293,37.9219 540.623,37.3125 Q541.7168,36.6875 542.9512,36.6875 Q543.6855,36.6875 544.3262,36.8594 Q544.9824,37.0156 545.5293,37.375 Z " fill="#000000"/><text fill="#000000" font-family="sans-serif" font-size="14" lengthAdjust="spacing" textLength="40.4824" x="563.2637" y="47.2969">Sedan</text><line style="stroke:#181818;stroke-width:0.5;" x1="475.5" x2="659.0098" y1="57.5" y2="57.5"/><rect fill="none" height="6" style="stroke:#C82930;stroke-width:1.0;" width="6" x="482.5" y="69.3105"/><text fill="#000000" font-family="sans-serif" font-size="14" lengthAdjust="spacing" textLength="141.6475" x="494.5" y="76.6074">espacioInterior: double</text><rect fill="none" height="6" style="stroke:#C82930;stroke-width:1.0;" width="6" x="482.5" y="87.9316"/><text fill="#000000" font-family="sans-serif" font-size="14" lengthAdjust="spacing" textLength="159.5098" x="494.5" y="95.2285">nivelConfort: NivelConfort</text><line style="stroke:#181818;stroke-width:0.5;" x1="475.5" x2="659.0098" y1="102.7422" y2="102.7422"/></g><!--class SUV--><g id="elem_SUV"><rect codeLine="33" fill="#F1F1F1" height="85.2422" id="SUV" rx="2.5" ry="2.5" style="stroke:#181818;stroke-width:0.5;" width="194.123" x="695.5" y="25.5"/><ellipse cx="773.9185" cy="41.5" fill="#ADD1B2" rx="11" ry="11" style="stroke:#181818;stroke-width:1.0;"/><path d="M776.6841,37.375 Q776.8403,37.1563 777.0278,37.0469 Q777.2153,36.9375 777.4341,36.9375 Q777.8091,36.9375 778.0435,37.2031 Q778.2778,37.4531 778.2778,38.0625 L778.2778,39.5156 Q778.2778,40.125 778.0435,40.3906 Q777.8091,40.6563 777.4341,40.6563 Q777.0903,40.6563 776.8872,40.4531 Q776.6841,40.2656 776.5747,39.75 Q776.5278,39.3906 776.3403,39.2031 Q776.0122,38.8281 775.4028,38.6094 Q774.7935,38.3906 774.1685,38.3906 Q773.4028,38.3906 772.7622,38.7188 Q772.1372,39.0469 771.6372,39.7969 Q771.1528,40.5469 771.1528,41.5781 L771.1528,42.6719 Q771.1528,43.9063 772.0435,44.7344 Q772.9341,45.5469 774.5278,45.5469 Q775.4653,45.5469 776.1216,45.2969 Q776.5122,45.1406 776.9341,44.7031 Q777.1997,44.4375 777.3403,44.3594 Q777.4966,44.2813 777.6997,44.2813 Q778.0278,44.2813 778.2778,44.5469 Q778.5435,44.7969 778.5435,45.1406 Q778.5435,45.4844 778.1997,45.8906 Q777.6997,46.4688 776.9028,46.7969 Q775.8247,47.25 774.5278,47.25 Q773.0122,47.25 771.8091,46.625 Q770.8247,46.125 770.1372,45.0625 Q769.4497,43.9844 769.4497,42.7031 L769.4497,41.5469 Q769.4497,40.2188 770.0591,39.0781 Q770.6841,37.9219 771.7778,37.3125 Q772.8716,36.6875 774.106,36.6875 Q774.8403,36.6875 775.481,36.8594 Q776.1372,37.0156 776.6841,37.375 Z " fill="#000000"/><text fill="#000000" font-family="sans-serif" font-size="14" lengthAdjust="spacing" textLength="28.7861" x="794.4185" y="47.2969">SUV</text><line style="stroke:#181818;stroke-width:0.5;" x1="696.5" x2="888.623" y1="57.5" y2="57.5"/><rect fill="none" height="6" style="stroke:#C82930;stroke-width:1.0;" width="6" x="703.5" y="69.3105"/><text fill="#000000" font-family="sans-serif" font-size="14" lengthAdjust="spacing" textLength="168.123" x="715.5" y="76.6074">capacidadOffroad: boolean</text><rect fill="none" height="6" style="stroke:#C82930;stroke-width:1.0;" width="6" x="703.5" y="87.9316"/><text fill="#000000" font-family="sans-serif" font-size="14" lengthAdjust="spacing" textLength="151.7783" x="715.5" y="95.2285">alturaLibreSuelo: double</text><line style="stroke:#181818;stroke-width:0.5;" x1="696.5" x2="888.623" y1="102.7422" y2="102.7422"/></g><!--class Deportivo--><g id="elem_Deportivo"><rect codeLine="37" fill="#F1F1F1" height="103.8633" id="Deportivo" rx="2.5" ry="2.5" style="stroke:#181818;stroke-width:0.5;" width="186.3506" x="924.5" y="16"/><ellipse cx="983.4668" cy="32" fill="#ADD1B2" rx="11" ry="11" style="stroke:#181818;stroke-width:1.0;"/><path d="M986.2324,27.875 Q986.3887,27.6563 986.5762,27.5469 Q986.7637,27.4375 986.9824,27.4375 Q987.3574,27.4375 987.5918,27.7031 Q987.8262,27.9531 987.8262,28.5625 L987.8262,30.0156 Q987.8262,30.625 987.5918,30.8906 Q987.3574,31.1563 986.9824,31.1563 Q986.6387,31.1563 986.4355,30.9531 Q986.2324,30.7656 986.123,30.25 Q986.0762,29.8906 985.8887,29.7031 Q985.5605,29.3281 984.9512,29.1094 Q984.3418,28.8906 983.7168,28.8906 Q982.9512,28.8906 982.3105,29.2188 Q981.6855,29.5469 981.1855,30.2969 Q980.7012,31.0469 980.7012,32.0781 L980.7012,33.1719 Q980.7012,34.4063 981.5918,35.2344 Q982.4824,36.0469 984.0762,36.0469 Q985.0137,36.0469 985.6699,35.7969 Q986.0605,35.6406 986.4824,35.2031 Q986.748,34.9375 986.8887,34.8594 Q987.0449,34.7813 987.248,34.7813 Q987.5762,34.7813 987.8262,35.0469 Q988.0918,35.2969 988.0918,35.6406 Q988.0918,35.9844 987.748,36.3906 Q987.248,36.9688 986.4512,37.2969 Q985.373,37.75 984.0762,37.75 Q982.5605,37.75 981.3574,37.125 Q980.373,36.625 979.6855,35.5625 Q978.998,34.4844 978.998,33.2031 L978.998,32.0469 Q978.998,30.7188 979.6074,29.5781 Q980.2324,28.4219 981.3262,27.8125 Q982.4199,27.1875 983.6543,27.1875 Q984.3887,27.1875 985.0293,27.3594 Q985.6855,27.5156 986.2324,27.875 Z " fill="#000000"/><text fill="#000000" font-family="sans-serif" font-size="14" lengthAdjust="spacing" textLength="59.917" x="1003.9668" y="37.7969">Deportivo</text><line style="stroke:#181818;stroke-width:0.5;" x1="925.5" x2="1109.8506" y1="48" y2="48"/><rect fill="none" height="6" style="stroke:#C82930;stroke-width:1.0;" width="6" x="932.5" y="59.8105"/><text fill="#000000" font-family="sans-serif" font-size="14" lengthAdjust="spacing" textLength="160.3506" x="944.5" y="67.1074">aceleracion0a100: double</text><rect fill="none" height="6" style="stroke:#C82930;stroke-width:1.0;" width="6" x="932.5" y="78.4316"/><text fill="#000000" font-family="sans-serif" font-size="14" lengthAdjust="spacing" textLength="94.9443" x="944.5" y="85.7285">potenciaCV: int</text><rect fill="none" height="6" style="stroke:#C82930;stroke-width:1.0;" width="6" x="932.5" y="97.0527"/><text fill="#000000" font-family="sans-serif" font-size="14" lengthAdjust="spacing" textLength="154.1094" x="944.5" y="104.3496">tieneModoPista: boolean</text><line style="stroke:#181818;stroke-width:0.5;" x1="925.5" x2="1109.8506" y1="111.8633" y2="111.8633"/></g><!--class Moto--><g id="elem_Moto"><rect codeLine="42" fill="#F1F1F1" height="122.4844" id="Moto" rx="2.5" ry="2.5" style="stroke:#181818;stroke-width:0.5;" width="236.0684" x="1127.5" y="189"/><ellipse cx="1225.7222" cy="205" fill="#ADD1B2" rx="11" ry="11" style="stroke:#181818;stroke-width:1.0;"/><path d="M1228.4878,200.875 Q1228.644,200.6563 1228.8315,200.5469 Q1229.019,200.4375 1229.2378,200.4375 Q1229.6128,200.4375 1229.8472,200.7031 Q1230.0815,200.9531 1230.0815,201.5625 L1230.0815,203.0156 Q1230.0815,203.625 1229.8472,203.8906 Q1229.6128,204.1563 1229.2378,204.1563 Q1228.894,204.1563 1228.6909,203.9531 Q1228.4878,203.7656 1228.3784,203.25 Q1228.3315,202.8906 1228.144,202.7031 Q1227.8159,202.3281 1227.2065,202.1094 Q1226.5972,201.8906 1225.9722,201.8906 Q1225.2065,201.8906 1224.5659,202.2188 Q1223.9409,202.5469 1223.4409,203.2969 Q1222.9565,204.0469 1222.9565,205.0781 L1222.9565,206.1719 Q1222.9565,207.4063 1223.8472,208.2344 Q1224.7378,209.0469 1226.3315,209.0469 Q1227.269,209.0469 1227.9253,208.7969 Q1228.3159,208.6406 1228.7378,208.2031 Q1229.0034,207.9375 1229.144,207.8594 Q1229.3003,207.7813 1229.5034,207.7813 Q1229.8315,207.7813 1230.0815,208.0469 Q1230.3472,208.2969 1230.3472,208.6406 Q1230.3472,208.9844 1230.0034,209.3906 Q1229.5034,209.9688 1228.7065,210.2969 Q1227.6284,210.75 1226.3315,210.75 Q1224.8159,210.75 1223.6128,210.125 Q1222.6284,209.625 1221.9409,208.5625 Q1221.2534,207.4844 1221.2534,206.2031 L1221.2534,205.0469 Q1221.2534,203.7188 1221.8628,202.5781 Q1222.4878,201.4219 1223.5815,200.8125 Q1224.6753,200.1875 1225.9097,200.1875 Q1226.644,200.1875 1227.2847,200.3594 Q1227.9409,200.5156 1228.4878,200.875 Z " fill="#000000"/><text fill="#000000" font-family="sans-serif" font-size="14" lengthAdjust="spacing" textLength="31.124" x="1246.2222" y="210.7969">Moto</text><line style="stroke:#181818;stroke-width:0.5;" x1="1128.5" x2="1362.5684" y1="221" y2="221"/><rect fill="none" height="6" style="stroke:#C82930;stroke-width:1.0;" width="6" x="1135.5" y="232.8105"/><text fill="#000000" font-family="sans-serif" font-size="14" lengthAdjust="spacing" textLength="82.4893" x="1147.5" y="240.1074">cilindrada: int</text><rect fill="none" height="6" style="stroke:#C82930;stroke-width:1.0;" width="6" x="1135.5" y="251.4316"/><text fill="#000000" font-family="sans-serif" font-size="14" lengthAdjust="spacing" textLength="52.9238" x="1147.5" y="258.7285">peso: int</text><rect fill="none" height="6" style="stroke:#C82930;stroke-width:1.0;" width="6" x="1135.5" y="270.0527"/><text fill="#000000" font-family="sans-serif" font-size="14" lengthAdjust="spacing" textLength="131.5371" x="1147.5" y="277.3496">alturaAsiento: double</text><rect fill="none" height="6" style="stroke:#C82930;stroke-width:1.0;" width="6" x="1135.5" y="288.6738"/><text fill="#000000" font-family="sans-serif" font-size="14" lengthAdjust="spacing" textLength="210.0684" x="1147.5" y="295.9707">tipoTransmision: TipoTransmision</text><line style="stroke:#181818;stroke-width:0.5;" x1="1128.5" x2="1362.5684" y1="303.4844" y2="303.4844"/></g><!--class Scooter--><g id="elem_Scooter"><rect codeLine="48" fill="#F1F1F1" height="66.6211" id="Scooter" rx="2.5" ry="2.5" style="stroke:#181818;stroke-width:0.5;" width="198.792" x="1146" y="34.5"/><ellipse cx="1217.022" cy="50.5" fill="#ADD1B2" rx="11" ry="11" style="stroke:#181818;stroke-width:1.0;"/><path d="M1219.7876,46.375 Q1219.9438,46.1563 1220.1313,46.0469 Q1220.3188,45.9375 1220.5376,45.9375 Q1220.9126,45.9375 1221.147,46.2031 Q1221.3813,46.4531 1221.3813,47.0625 L1221.3813,48.5156 Q1221.3813,49.125 1221.147,49.3906 Q1220.9126,49.6563 1220.5376,49.6563 Q1220.1938,49.6563 1219.9907,49.4531 Q1219.7876,49.2656 1219.6782,48.75 Q1219.6313,48.3906 1219.4438,48.2031 Q1219.1157,47.8281 1218.5063,47.6094 Q1217.897,47.3906 1217.272,47.3906 Q1216.5063,47.3906 1215.8657,47.7188 Q1215.2407,48.0469 1214.7407,48.7969 Q1214.2563,49.5469 1214.2563,50.5781 L1214.2563,51.6719 Q1214.2563,52.9063 1215.147,53.7344 Q1216.0376,54.5469 1217.6313,54.5469 Q1218.5688,54.5469 1219.2251,54.2969 Q1219.6157,54.1406 1220.0376,53.7031 Q1220.3032,53.4375 1220.4438,53.3594 Q1220.6001,53.2813 1220.8032,53.2813 Q1221.1313,53.2813 1221.3813,53.5469 Q1221.647,53.7969 1221.647,54.1406 Q1221.647,54.4844 1221.3032,54.8906 Q1220.8032,55.4688 1220.0063,55.7969 Q1218.9282,56.25 1217.6313,56.25 Q1216.1157,56.25 1214.9126,55.625 Q1213.9282,55.125 1213.2407,54.0625 Q1212.5532,52.9844 1212.5532,51.7031 L1212.5532,50.5469 Q1212.5532,49.2188 1213.1626,48.0781 Q1213.7876,46.9219 1214.8813,46.3125 Q1215.9751,45.6875 1217.2095,45.6875 Q1217.9438,45.6875 1218.5845,45.8594 Q1219.2407,46.0156 1219.7876,46.375 Z " fill="#000000"/><text fill="#000000" font-family="sans-serif" font-size="14" lengthAdjust="spacing" textLength="48.248" x="1237.522" y="56.2969">Scooter</text><line style="stroke:#181818;stroke-width:0.5;" x1="1147" x2="1343.792" y1="66.5" y2="66.5"/><rect fill="none" height="6" style="stroke:#C82930;stroke-width:1.0;" width="6" x="1154" y="78.3105"/><text fill="#000000" font-family="sans-serif" font-size="14" lengthAdjust="spacing" textLength="172.792" x="1166" y="85.6074">espacioBajoAsiento: double</text><line style="stroke:#181818;stroke-width:0.5;" x1="1147" x2="1343.792" y1="93.1211" y2="93.1211"/></g><!--class Deportiva--><g id="elem_Deportiva"><rect codeLine="51" fill="#F1F1F1" height="85.2422" id="Deportiva" rx="2.5" ry="2.5" style="stroke:#181818;stroke-width:0.5;" width="190.2129" x="1380.5" y="25.5"/><ellipse cx="1441.3979" cy="41.5" fill="#ADD1B2" rx="11" ry="11" style="stroke:#181818;stroke-width:1.0;"/><path d="M1444.1636,37.375 Q1444.3198,37.1563 1444.5073,37.0469 Q1444.6948,36.9375 1444.9136,36.9375 Q1445.2886,36.9375 1445.5229,37.2031 Q1445.7573,37.4531 1445.7573,38.0625 L1445.7573,39.5156 Q1445.7573,40.125 1445.5229,40.3906 Q1445.2886,40.6563 1444.9136,40.6563 Q1444.5698,40.6563 1444.3667,40.4531 Q1444.1636,40.2656 1444.0542,39.75 Q1444.0073,39.3906 1443.8198,39.2031 Q1443.4917,38.8281 1442.8823,38.6094 Q1442.2729,38.3906 1441.6479,38.3906 Q1440.8823,38.3906 1440.2417,38.7188 Q1439.6167,39.0469 1439.1167,39.7969 Q1438.6323,40.5469 1438.6323,41.5781 L1438.6323,42.6719 Q1438.6323,43.9063 1439.5229,44.7344 Q1440.4136,45.5469 1442.0073,45.5469 Q1442.9448,45.5469 1443.6011,45.2969 Q1443.9917,45.1406 1444.4136,44.7031 Q1444.6792,44.4375 1444.8198,44.3594 Q1444.9761,44.2813 1445.1792,44.2813 Q1445.5073,44.2813 1445.7573,44.5469 Q1446.0229,44.7969 1446.0229,45.1406 Q1446.0229,45.4844 1445.6792,45.8906 Q1445.1792,46.4688 1444.3823,46.7969 Q1443.3042,47.25 1442.0073,47.25 Q1440.4917,47.25 1439.2886,46.625 Q1438.3042,46.125 1437.6167,45.0625 Q1436.9292,43.9844 1436.9292,42.7031 L1436.9292,41.5469 Q1436.9292,40.2188 1437.5386,39.0781 Q1438.1636,37.9219 1439.2573,37.3125 Q1440.3511,36.6875 1441.5854,36.6875 Q1442.3198,36.6875 1442.9604,36.8594 Q1443.6167,37.0156 1444.1636,37.375 Z " fill="#000000"/><text fill="#000000" font-family="sans-serif" font-size="14" lengthAdjust="spacing" textLength="59.917" x="1461.8979" y="47.2969">Deportiva</text><line style="stroke:#181818;stroke-width:0.5;" x1="1381.5" x2="1569.7129" y1="57.5" y2="57.5"/><rect fill="none" height="6" style="stroke:#C82930;stroke-width:1.0;" width="6" x="1388.5" y="69.3105"/><text fill="#000000" font-family="sans-serif" font-size="14" lengthAdjust="spacing" textLength="157.9785" x="1400.5" y="76.6074">velocidadMaxima: double</text><rect fill="none" height="6" style="stroke:#C82930;stroke-width:1.0;" width="6" x="1388.5" y="87.9316"/><text fill="#000000" font-family="sans-serif" font-size="14" lengthAdjust="spacing" textLength="164.2129" x="1400.5" y="95.2285">tieneQuickShifter: boolean</text><line style="stroke:#181818;stroke-width:0.5;" x1="1381.5" x2="1569.7129" y1="102.7422" y2="102.7422"/></g><!--class Camion--><g id="elem_Camion"><rect codeLine="55" fill="#F1F1F1" height="122.4844" id="Camion" rx="2.5" ry="2.5" style="stroke:#181818;stroke-width:0.5;" width="188.6748" x="1399" y="189"/><ellipse cx="1464.9668" cy="205" fill="#ADD1B2" rx="11" ry="11" style="stroke:#181818;stroke-width:1.0;"/><path d="M1467.7324,200.875 Q1467.8887,200.6563 1468.0762,200.5469 Q1468.2637,200.4375 1468.4824,200.4375 Q1468.8574,200.4375 1469.0918,200.7031 Q1469.3262,200.9531 1469.3262,201.5625 L1469.3262,203.0156 Q1469.3262,203.625 1469.0918,203.8906 Q1468.8574,204.1563 1468.4824,204.1563 Q1468.1387,204.1563 1467.9355,203.9531 Q1467.7324,203.7656 1467.623,203.25 Q1467.5762,202.8906 1467.3887,202.7031 Q1467.0605,202.3281 1466.4512,202.1094 Q1465.8418,201.8906 1465.2168,201.8906 Q1464.4512,201.8906 1463.8105,202.2188 Q1463.1855,202.5469 1462.6855,203.2969 Q1462.2012,204.0469 1462.2012,205.0781 L1462.2012,206.1719 Q1462.2012,207.4063 1463.0918,208.2344 Q1463.9824,209.0469 1465.5762,209.0469 Q1466.5137,209.0469 1467.1699,208.7969 Q1467.5605,208.6406 1467.9824,208.2031 Q1468.248,207.9375 1468.3887,207.8594 Q1468.5449,207.7813 1468.748,207.7813 Q1469.0762,207.7813 1469.3262,208.0469 Q1469.5918,208.2969 1469.5918,208.6406 Q1469.5918,208.9844 1469.248,209.3906 Q1468.748,209.9688 1467.9512,210.2969 Q1466.873,210.75 1465.5762,210.75 Q1464.0605,210.75 1462.8574,210.125 Q1461.873,209.625 1461.1855,208.5625 Q1460.498,207.4844 1460.498,206.2031 L1460.498,205.0469 Q1460.498,203.7188 1461.1074,202.5781 Q1461.7324,201.4219 1462.8262,200.8125 Q1463.9199,200.1875 1465.1543,200.1875 Q1465.8887,200.1875 1466.5293,200.3594 Q1467.1855,200.5156 1467.7324,200.875 Z " fill="#000000"/><text fill="#000000" font-family="sans-serif" font-size="14" lengthAdjust="spacing" textLength="48.2412" x="1485.4668" y="210.7969">Camion</text><line style="stroke:#181818;stroke-width:0.5;" x1="1400" x2="1586.6748" y1="221" y2="221"/><rect fill="none" height="6" style="stroke:#C82930;stroke-width:1.0;" width="6" x="1407" y="232.8105"/><text fill="#000000" font-family="sans-serif" font-size="14" lengthAdjust="spacing" textLength="151.7783" x="1419" y="240.1074">capacidadCarga: double</text><rect fill="none" height="6" style="stroke:#C82930;stroke-width:1.0;" width="6" x="1407" y="251.4316"/><text fill="#000000" font-family="sans-serif" font-size="14" lengthAdjust="spacing" textLength="77.0342" x="1419" y="258.7285">numEjes: int</text><rect fill="none" height="6" style="stroke:#C82930;stroke-width:1.0;" width="6" x="1407" y="270.0527"/><text fill="#000000" font-family="sans-serif" font-size="14" lengthAdjust="spacing" textLength="162.6748" x="1419" y="277.3496">longitudRemolque: double</text><rect fill="none" height="6" style="stroke:#C82930;stroke-width:1.0;" width="6" x="1407" y="288.6738"/><text fill="#000000" font-family="sans-serif" font-size="14" lengthAdjust="spacing" textLength="111.2822" x="1419" y="295.9707">potenciaMotor: int</text><line style="stroke:#181818;stroke-width:0.5;" x1="1400" x2="1586.6748" y1="303.4844" y2="303.4844"/></g><!--class Validar--><g id="elem_Validar"><rect codeLine="61" fill="#F1F1F1" height="66.6211" id="Validar" rx="2.5" ry="2.5" style="stroke:#181818;stroke-width:0.5;" width="197.1719" x="1623" y="34.5"/><ellipse cx="1695.5464" cy="50.5" fill="#ADD1B2" rx="11" ry="11" style="stroke:#181818;stroke-width:1.0;"/><path d="M1698.312,46.375 Q1698.4683,46.1563 1698.6558,46.0469 Q1698.8433,45.9375 1699.062,45.9375 Q1699.437,45.9375 1699.6714,46.2031 Q1699.9058,46.4531 1699.9058,47.0625 L1699.9058,48.5156 Q1699.9058,49.125 1699.6714,49.3906 Q1699.437,49.6563 1699.062,49.6563 Q1698.7183,49.6563 1698.5151,49.4531 Q1698.312,49.2656 1698.2026,48.75 Q1698.1558,48.3906 1697.9683,48.2031 Q1697.6401,47.8281 1697.0308,47.6094 Q1696.4214,47.3906 1695.7964,47.3906 Q1695.0308,47.3906 1694.3901,47.7188 Q1693.7651,48.0469 1693.2651,48.7969 Q1692.7808,49.5469 1692.7808,50.5781 L1692.7808,51.6719 Q1692.7808,52.9063 1693.6714,53.7344 Q1694.562,54.5469 1696.1558,54.5469 Q1697.0933,54.5469 1697.7495,54.2969 Q1698.1401,54.1406 1698.562,53.7031 Q1698.8276,53.4375 1698.9683,53.3594 Q1699.1245,53.2813 1699.3276,53.2813 Q1699.6558,53.2813 1699.9058,53.5469 Q1700.1714,53.7969 1700.1714,54.1406 Q1700.1714,54.4844 1699.8276,54.8906 Q1699.3276,55.4688 1698.5308,55.7969 Q1697.4526,56.25 1696.1558,56.25 Q1694.6401,56.25 1693.437,55.625 Q1692.4526,55.125 1691.7651,54.0625 Q1691.0776,52.9844 1691.0776,51.7031 L1691.0776,50.5469 Q1691.0776,49.2188 1691.687,48.0781 Q1692.312,46.9219 1693.4058,46.3125 Q1694.4995,45.6875 1695.7339,45.6875 Q1696.4683,45.6875 1697.1089,45.8594 Q1697.7651,46.0156 1698.312,46.375 Z " fill="#000000"/><text fill="#000000" font-family="sans-serif" font-size="14" lengthAdjust="spacing" textLength="43.5791" x="1716.0464" y="56.2969">Validar</text><line style="stroke:#181818;stroke-width:0.5;" x1="1624" x2="1819.1719" y1="66.5" y2="66.5"/><line style="stroke:#181818;stroke-width:0.5;" x1="1624" x2="1819.1719" y1="74.5" y2="74.5"/><ellipse cx="1634" cy="89.3105" fill="#84BE84" rx="3" ry="3" style="stroke:#038048;stroke-width:1.0;"/><text fill="#000000" font-family="sans-serif" font-size="14" lengthAdjust="spacing" textLength="171.1719" x="1643" y="93.6074">validarDNI(dni: String): void</text></g><!--class InvalidDNI--><g id="elem_InvalidDNI"><rect codeLine="64" fill="#F1F1F1" height="66.6211" id="InvalidDNI" rx="2.5" ry="2.5" style="stroke:#181818;stroke-width:0.5;" width="197.1719" x="1623" y="216.5"/><ellipse cx="1685.0464" cy="232.5" fill="#ADD1B2" rx="11" ry="11" style="stroke:#181818;stroke-width:1.0;"/><path d="M1687.812,228.375 Q1687.9683,228.1563 1688.1558,228.0469 Q1688.3433,227.9375 1688.562,227.9375 Q1688.937,227.9375 1689.1714,228.2031 Q1689.4058,228.4531 1689.4058,229.0625 L1689.4058,230.5156 Q1689.4058,231.125 1689.1714,231.3906 Q1688.937,231.6563 1688.562,231.6563 Q1688.2183,231.6563 1688.0151,231.4531 Q1687.812,231.2656 1687.7026,230.75 Q1687.6558,230.3906 1687.4683,230.2031 Q1687.1401,229.8281 1686.5308,229.6094 Q1685.9214,229.3906 1685.2964,229.3906 Q1684.5308,229.3906 1683.8901,229.7188 Q1683.2651,230.0469 1682.7651,230.7969 Q1682.2808,231.5469 1682.2808,232.5781 L1682.2808,233.6719 Q1682.2808,234.9063 1683.1714,235.7344 Q1684.062,236.5469 1685.6558,236.5469 Q1686.5933,236.5469 1687.2495,236.2969 Q1687.6401,236.1406 1688.062,235.7031 Q1688.3276,235.4375 1688.4683,235.3594 Q1688.6245,235.2813 1688.8276,235.2813 Q1689.1558,235.2813 1689.4058,235.5469 Q1689.6714,235.7969 1689.6714,236.1406 Q1689.6714,236.4844 1689.3276,236.8906 Q1688.8276,237.4688 1688.0308,237.7969 Q1686.9526,238.25 1685.6558,238.25 Q1684.1401,238.25 1682.937,237.625 Q1681.9526,237.125 1681.2651,236.0625 Q1680.5776,234.9844 1680.5776,233.7031 L1680.5776,232.5469 Q1680.5776,231.2188 1681.187,230.0781 Q1681.812,228.9219 1682.9058,228.3125 Q1683.9995,227.6875 1685.2339,227.6875 Q1685.9683,227.6875 1686.6089,227.8594 Q1687.2651,228.0156 1687.812,228.375 Z " fill="#000000"/><text fill="#000000" font-family="sans-serif" font-size="14" lengthAdjust="spacing" textLength="64.5791" x="1705.5464" y="238.2969">InvalidDNI</text><line style="stroke:#181818;stroke-width:0.5;" x1="1624" x2="1819.1719" y1="248.5" y2="248.5"/><line style="stroke:#181818;stroke-width:0.5;" x1="1624" x2="1819.1719" y1="256.5" y2="256.5"/><ellipse cx="1634" cy="271.3105" fill="#84BE84" rx="3" ry="3" style="stroke:#038048;stroke-width:1.0;"/><text fill="#000000" font-family="sans-serif" font-size="14" lengthAdjust="spacing" textLength="171.1719" x="1643" y="275.6074">InvalidDNI(mensaje: String)</text></g><!--class Persona--><g id="elem_Persona"><rect codeLine="67" fill="#F1F1F1" height="141.1055" id="Persona" rx="2.5" ry="2.5" style="stroke:#181818;stroke-width:0.5;" width="240.0264" x="995.5" y="851"/><ellipse cx="1085.1909" cy="867" fill="#ADD1B2" rx="11" ry="11" style="stroke:#181818;stroke-width:1.0;"/><path d="M1087.9565,862.875 Q1088.1128,862.6563 1088.3003,862.5469 Q1088.4878,862.4375 1088.7065,862.4375 Q1089.0815,862.4375 1089.3159,862.7031 Q1089.5503,862.9531 1089.5503,863.5625 L1089.5503,865.0156 Q1089.5503,865.625 1089.3159,865.8906 Q1089.0815,866.1563 1088.7065,866.1563 Q1088.3628,866.1563 1088.1597,865.9531 Q1087.9565,865.7656 1087.8472,865.25 Q1087.8003,864.8906 1087.6128,864.7031 Q1087.2847,864.3281 1086.6753,864.1094 Q1086.0659,863.8906 1085.4409,863.8906 Q1084.6753,863.8906 1084.0347,864.2188 Q1083.4097,864.5469 1082.9097,865.2969 Q1082.4253,866.0469 1082.4253,867.0781 L1082.4253,868.1719 Q1082.4253,869.4063 1083.3159,870.2344 Q1084.2065,871.0469 1085.8003,871.0469 Q1086.7378,871.0469 1087.394,870.7969 Q1087.7847,870.6406 1088.2065,870.2031 Q1088.4722,869.9375 1088.6128,869.8594 Q1088.769,869.7813 1088.9722,869.7813 Q1089.3003,869.7813 1089.5503,870.0469 Q1089.8159,870.2969 1089.8159,870.6406 Q1089.8159,870.9844 1089.4722,871.3906 Q1088.9722,871.9688 1088.1753,872.2969 Q1087.0972,872.75 1085.8003,872.75 Q1084.2847,872.75 1083.0815,872.125 Q1082.0972,871.625 1081.4097,870.5625 Q1080.7222,869.4844 1080.7222,868.2031 L1080.7222,867.0469 Q1080.7222,865.7188 1081.3315,864.5781 Q1081.9565,863.4219 1083.0503,862.8125 Q1084.144,862.1875 1085.3784,862.1875 Q1086.1128,862.1875 1086.7534,862.3594 Q1087.4097,862.5156 1087.9565,862.875 Z " fill="#000000"/><text fill="#000000" font-family="sans-serif" font-size="14" lengthAdjust="spacing" textLength="52.1445" x="1105.6909" y="872.7969">Persona</text><line style="stroke:#181818;stroke-width:0.5;" x1="996.5" x2="1234.5264" y1="883" y2="883"/><rect fill="none" height="6" style="stroke:#C82930;stroke-width:1.0;" width="6" x="1003.5" y="894.8105"/><text fill="#000000" font-family="sans-serif" font-size="14" lengthAdjust="spacing" textLength="91.8203" x="1015.5" y="902.1074">nombre: String</text><rect fill="none" height="6" style="stroke:#C82930;stroke-width:1.0;" width="6" x="1003.5" y="913.4316"/><text fill="#000000" font-family="sans-serif" font-size="14" lengthAdjust="spacing" textLength="99.6133" x="1015.5" y="920.7285">apellidos: String</text><rect fill="none" height="6" style="stroke:#C82930;stroke-width:1.0;" width="6" x="1003.5" y="932.0527"/><text fill="#000000" font-family="sans-serif" font-size="14" lengthAdjust="spacing" textLength="63.0342" x="1015.5" y="939.3496">dni: String</text><rect fill="none" height="6" style="stroke:#C82930;stroke-width:1.0;" width="6" x="1003.5" y="950.6738"/><text fill="#000000" font-family="sans-serif" font-size="14" lengthAdjust="spacing" textLength="214.0264" x="1015.5" y="957.9707">fechaCaducidadCarnet: LocalDate</text><rect fill="none" height="6" style="stroke:#C82930;stroke-width:1.0;" width="6" x="1003.5" y="969.2949"/><text fill="#000000" font-family="sans-serif" font-size="14" lengthAdjust="spacing" textLength="126.8477" x="1015.5" y="976.5918">annioNacimiento: int</text><line style="stroke:#181818;stroke-width:0.5;" x1="996.5" x2="1234.5264" y1="984.1055" y2="984.1055"/></g><!--class Valorable--><g id="elem_Valorable"><rect codeLine="74" fill="#F1F1F1" height="66.6211" id="Valorable" rx="2.5" ry="2.5" style="stroke:#181818;stroke-width:0.5;" width="210.4336" x="1270.5" y="888"/><ellipse cx="1341.8911" cy="904" fill="#B4A7E5" rx="11" ry="11" style="stroke:#181818;stroke-width:1.0;"/><path d="M1342.8442,900.6406 L1342.8442,907.2969 L1344.563,907.2969 Q1345.1724,907.2969 1345.438,907.5313 Q1345.7036,907.7656 1345.7036,908.1563 Q1345.7036,908.5313 1345.438,908.7656 Q1345.1724,909 1344.563,909 L1339.4224,909 Q1338.813,909 1338.5474,908.7656 Q1338.2817,908.5313 1338.2817,908.1406 Q1338.2817,907.7656 1338.5474,907.5313 Q1338.813,907.2969 1339.4224,907.2969 L1341.1411,907.2969 L1341.1411,900.6406 L1339.4224,900.6406 Q1338.813,900.6406 1338.5474,900.4063 Q1338.2817,900.1719 1338.2817,899.7813 Q1338.2817,899.4063 1338.5474,899.1719 Q1338.813,898.9375 1339.4224,898.9375 L1344.563,898.9375 Q1345.1724,898.9375 1345.438,899.1719 Q1345.7036,899.4063 1345.7036,899.7813 Q1345.7036,900.1719 1345.438,900.4063 Q1345.1724,900.6406 1344.563,900.6406 L1342.8442,900.6406 Z " fill="#000000"/><text fill="#000000" font-family="sans-serif" font-size="14" font-style="italic" lengthAdjust="spacing" textLength="59.1514" x="1362.3911" y="909.7969">Valorable</text><line style="stroke:#181818;stroke-width:0.5;" x1="1271.5" x2="1479.9336" y1="920" y2="920"/><line style="stroke:#181818;stroke-width:0.5;" x1="1271.5" x2="1479.9336" y1="928" y2="928"/><ellipse cx="1281.5" cy="942.8105" fill="#84BE84" rx="3" ry="3" style="stroke:#038048;stroke-width:1.0;"/><text fill="#000000" font-family="sans-serif" font-size="14" lengthAdjust="spacing" textLength="184.4336" x="1290.5" y="947.1074">calculoDepreciacion(): double</text></g><!--class EstadoVehiculo--><g id="elem_EstadoVehiculo"><rect codeLine="80" fill="#F1F1F1" height="85.2422" id="EstadoVehiculo" rx="2.5" ry="2.5" style="stroke:#181818;stroke-width:0.5;" width="129.2891" x="7" y="25.5"/><ellipse cx="22" cy="41.5" fill="#EB937F" rx="11" ry="11" style="stroke:#181818;stroke-width:1.0;"/><path d="M20.8594,42.2969 L20.8594,44.7969 L25.1875,44.7969 L25.1875,43.875 Q25.1875,43.2656 25.4219,43 Q25.6719,42.7344 26.0469,42.7344 Q26.4219,42.7344 26.6563,43 Q26.8906,43.2656 26.8906,43.875 L26.8906,46.5 L18.8906,46.5 Q18.2656,46.5 18,46.2656 Q17.75,46.0313 17.75,45.6406 Q17.75,45.2656 18.0156,45.0313 Q18.2813,44.7969 18.8906,44.7969 L19.1563,44.7969 L19.1563,38.1406 L18.8906,38.1406 Q18.2656,38.1406 18,37.9063 Q17.75,37.6719 17.75,37.2813 Q17.75,36.9063 18,36.6719 Q18.2656,36.4375 18.8906,36.4375 L26.5156,36.4375 L26.5156,39.0313 Q26.5156,39.6406 26.2813,39.9063 Q26.0625,40.1563 25.6719,40.1563 Q25.2969,40.1563 25.0625,39.9063 Q24.8281,39.6406 24.8281,39.0313 L24.8281,38.1406 L20.8594,38.1406 L20.8594,40.5938 L22.3438,40.5938 Q22.3438,39.9375 22.4688,39.75 Q22.7344,39.3438 23.2031,39.3438 Q23.5781,39.3438 23.8125,39.6094 Q24.0469,39.8594 24.0469,40.4688 L24.0469,42.4375 Q24.0469,42.9844 23.9219,43.1719 Q23.6563,43.5625 23.2031,43.5625 Q22.7344,43.5625 22.4688,43.1563 Q22.3438,42.9688 22.3438,42.2969 L20.8594,42.2969 Z " fill="#000000"/><text fill="#000000" font-family="sans-serif" font-size="14" lengthAdjust="spacing" textLength="97.2891" x="36" y="47.2969">EstadoVehiculo</text><line style="stroke:#181818;stroke-width:0.5;" x1="8" x2="135.2891" y1="57.5" y2="57.5"/><text fill="#000000" font-family="sans-serif" font-size="14" lengthAdjust="spacing" textLength="84.0273" x="13" y="76.6074">DISPONIBLE</text><text fill="#000000" font-family="sans-serif" font-size="14" lengthAdjust="spacing" textLength="63.7861" x="13" y="95.2285">VENDIDO</text><line style="stroke:#181818;stroke-width:0.5;" x1="8" x2="135.2891" y1="102.7422" y2="102.7422"/></g><!--class TipoCombustible--><g id="elem_TipoCombustible"><rect codeLine="85" fill="#F1F1F1" height="122.4844" id="TipoCombustible" rx="2.5" ry="2.5" style="stroke:#181818;stroke-width:0.5;" width="137.0479" x="171" y="7"/><ellipse cx="186" cy="23" fill="#EB937F" rx="11" ry="11" style="stroke:#181818;stroke-width:1.0;"/><path d="M184.8594,23.7969 L184.8594,26.2969 L189.1875,26.2969 L189.1875,25.375 Q189.1875,24.7656 189.4219,24.5 Q189.6719,24.2344 190.0469,24.2344 Q190.4219,24.2344 190.6563,24.5 Q190.8906,24.7656 190.8906,25.375 L190.8906,28 L182.8906,28 Q182.2656,28 182,27.7656 Q181.75,27.5313 181.75,27.1406 Q181.75,26.7656 182.0156,26.5313 Q182.2813,26.2969 182.8906,26.2969 L183.1563,26.2969 L183.1563,19.6406 L182.8906,19.6406 Q182.2656,19.6406 182,19.4063 Q181.75,19.1719 181.75,18.7813 Q181.75,18.4063 182,18.1719 Q182.2656,17.9375 182.8906,17.9375 L190.5156,17.9375 L190.5156,20.5313 Q190.5156,21.1406 190.2813,21.4063 Q190.0625,21.6563 189.6719,21.6563 Q189.2969,21.6563 189.0625,21.4063 Q188.8281,21.1406 188.8281,20.5313 L188.8281,19.6406 L184.8594,19.6406 L184.8594,22.0938 L186.3438,22.0938 Q186.3438,21.4375 186.4688,21.25 Q186.7344,20.8438 187.2031,20.8438 Q187.5781,20.8438 187.8125,21.1094 Q188.0469,21.3594 188.0469,21.9688 L188.0469,23.9375 Q188.0469,24.4844 187.9219,24.6719 Q187.6563,25.0625 187.2031,25.0625 Q186.7344,25.0625 186.4688,24.6563 Q186.3438,24.4688 186.3438,23.7969 L184.8594,23.7969 Z " fill="#000000"/><text fill="#000000" font-family="sans-serif" font-size="14" lengthAdjust="spacing" textLength="105.0479" x="200" y="28.7969">TipoCombustible</text><line style="stroke:#181818;stroke-width:0.5;" x1="172" x2="307.0479" y1="39" y2="39"/><text fill="#000000" font-family="sans-serif" font-size="14" lengthAdjust="spacing" textLength="71.5791" x="177" y="58.1074">GASOLINA</text><text fill="#000000" font-family="sans-serif" font-size="14" lengthAdjust="spacing" textLength="49.7998" x="177" y="76.7285">DIESEL</text><text fill="#000000" font-family="sans-serif" font-size="14" lengthAdjust="spacing" textLength="58.3379" x="177" y="95.3496">HIBRIDO</text><text fill="#000000" font-family="sans-serif" font-size="14" lengthAdjust="spacing" textLength="80.124" x="177" y="113.9707">ELECTRICO</text><line style="stroke:#181818;stroke-width:0.5;" x1="172" x2="307.0479" y1="121.4844" y2="121.4844"/></g><!--class Traccion--><g id="elem_Traccion"><rect codeLine="92" fill="#F1F1F1" height="103.8633" id="Traccion" rx="2.5" ry="2.5" style="stroke:#181818;stroke-width:0.5;" width="96.0205" x="343.5" y="16"/><ellipse cx="363.1521" cy="32" fill="#EB937F" rx="11" ry="11" style="stroke:#181818;stroke-width:1.0;"/><path d="M362.0114,32.7969 L362.0114,35.2969 L366.3396,35.2969 L366.3396,34.375 Q366.3396,33.7656 366.5739,33.5 Q366.8239,33.2344 367.1989,33.2344 Q367.5739,33.2344 367.8083,33.5 Q368.0427,33.7656 368.0427,34.375 L368.0427,37 L360.0427,37 Q359.4177,37 359.1521,36.7656 Q358.9021,36.5313 358.9021,36.1406 Q358.9021,35.7656 359.1677,35.5313 Q359.4333,35.2969 360.0427,35.2969 L360.3083,35.2969 L360.3083,28.6406 L360.0427,28.6406 Q359.4177,28.6406 359.1521,28.4063 Q358.9021,28.1719 358.9021,27.7813 Q358.9021,27.4063 359.1521,27.1719 Q359.4177,26.9375 360.0427,26.9375 L367.6677,26.9375 L367.6677,29.5313 Q367.6677,30.1406 367.4333,30.4063 Q367.2146,30.6563 366.8239,30.6563 Q366.4489,30.6563 366.2146,30.4063 Q365.9802,30.1406 365.9802,29.5313 L365.9802,28.6406 L362.0114,28.6406 L362.0114,31.0938 L363.4958,31.0938 Q363.4958,30.4375 363.6208,30.25 Q363.8864,29.8438 364.3552,29.8438 Q364.7302,29.8438 364.9646,30.1094 Q365.1989,30.3594 365.1989,30.9688 L365.1989,32.9375 Q365.1989,33.4844 365.0739,33.6719 Q364.8083,34.0625 364.3552,34.0625 Q363.8864,34.0625 363.6208,33.6563 Q363.4958,33.4688 363.4958,32.7969 L362.0114,32.7969 Z " fill="#000000"/><text fill="#000000" font-family="sans-serif" font-size="14" lengthAdjust="spacing" textLength="53.6826" x="378.1858" y="37.7969">Traccion</text><line style="stroke:#181818;stroke-width:0.5;" x1="344.5" x2="438.5205" y1="48" y2="48"/><text fill="#000000" font-family="sans-serif" font-size="14" lengthAdjust="spacing" textLength="84.0205" x="349.5" y="67.1074">DELANTERA</text><text fill="#000000" font-family="sans-serif" font-size="14" lengthAdjust="spacing" textLength="66.124" x="349.5" y="85.7285">TRASERA</text><text fill="#000000" font-family="sans-serif" font-size="14" lengthAdjust="spacing" textLength="24.9102" x="349.5" y="104.3496">4X4</text><line style="stroke:#181818;stroke-width:0.5;" x1="344.5" x2="438.5205" y1="111.8633" y2="111.8633"/></g><!--class NivelConfort--><g id="elem_NivelConfort"><rect codeLine="98" fill="#F1F1F1" height="103.8633" id="NivelConfort" rx="2.5" ry="2.5" style="stroke:#181818;stroke-width:0.5;" width="109.0273" x="17" y="198"/><ellipse cx="32" cy="214" fill="#EB937F" rx="11" ry="11" style="stroke:#181818;stroke-width:1.0;"/><path d="M30.8594,214.7969 L30.8594,217.2969 L35.1875,217.2969 L35.1875,216.375 Q35.1875,215.7656 35.4219,215.5 Q35.6719,215.2344 36.0469,215.2344 Q36.4219,215.2344 36.6563,215.5 Q36.8906,215.7656 36.8906,216.375 L36.8906,219 L28.8906,219 Q28.2656,219 28,218.7656 Q27.75,218.5313 27.75,218.1406 Q27.75,217.7656 28.0156,217.5313 Q28.2813,217.2969 28.8906,217.2969 L29.1563,217.2969 L29.1563,210.6406 L28.8906,210.6406 Q28.2656,210.6406 28,210.4063 Q27.75,210.1719 27.75,209.7813 Q27.75,209.4063 28,209.1719 Q28.2656,208.9375 28.8906,208.9375 L36.5156,208.9375 L36.5156,211.5313 Q36.5156,212.1406 36.2813,212.4063 Q36.0625,212.6563 35.6719,212.6563 Q35.2969,212.6563 35.0625,212.4063 Q34.8281,212.1406 34.8281,211.5313 L34.8281,210.6406 L30.8594,210.6406 L30.8594,213.0938 L32.3438,213.0938 Q32.3438,212.4375 32.4688,212.25 Q32.7344,211.8438 33.2031,211.8438 Q33.5781,211.8438 33.8125,212.1094 Q34.0469,212.3594 34.0469,212.9688 L34.0469,214.9375 Q34.0469,215.4844 33.9219,215.6719 Q33.6563,216.0625 33.2031,216.0625 Q32.7344,216.0625 32.4688,215.6563 Q32.3438,215.4688 32.3438,214.7969 L30.8594,214.7969 Z " fill="#000000"/><text fill="#000000" font-family="sans-serif" font-size="14" lengthAdjust="spacing" textLength="77.0273" x="46" y="219.7969">NivelConfort</text><line style="stroke:#181818;stroke-width:0.5;" x1="18" x2="125.0273" y1="230" y2="230"/><text fill="#000000" font-family="sans-serif" font-size="14" lengthAdjust="spacing" textLength="52.9033" x="23" y="249.1074">BASICO</text><text fill="#000000" font-family="sans-serif" font-size="14" lengthAdjust="spacing" textLength="45.8896" x="23" y="267.7285">MEDIO</text><text fill="#000000" font-family="sans-serif" font-size="14" lengthAdjust="spacing" textLength="66.1104" x="23" y="286.3496">PREMIUM</text><line style="stroke:#181818;stroke-width:0.5;" x1="18" x2="125.0273" y1="293.8633" y2="293.8633"/></g><!--class TipoTransmision--><g id="elem_TipoTransmision"><rect codeLine="104" fill="#F1F1F1" height="85.2422" id="TipoTransmision" rx="2.5" ry="2.5" style="stroke:#181818;stroke-width:0.5;" width="135.4756" x="161" y="207.5"/><ellipse cx="176" cy="223.5" fill="#EB937F" rx="11" ry="11" style="stroke:#181818;stroke-width:1.0;"/><path d="M174.8594,224.2969 L174.8594,226.7969 L179.1875,226.7969 L179.1875,225.875 Q179.1875,225.2656 179.4219,225 Q179.6719,224.7344 180.0469,224.7344 Q180.4219,224.7344 180.6563,225 Q180.8906,225.2656 180.8906,225.875 L180.8906,228.5 L172.8906,228.5 Q172.2656,228.5 172,228.2656 Q171.75,228.0313 171.75,227.6406 Q171.75,227.2656 172.0156,227.0313 Q172.2813,226.7969 172.8906,226.7969 L173.1563,226.7969 L173.1563,220.1406 L172.8906,220.1406 Q172.2656,220.1406 172,219.9063 Q171.75,219.6719 171.75,219.2813 Q171.75,218.9063 172,218.6719 Q172.2656,218.4375 172.8906,218.4375 L180.5156,218.4375 L180.5156,221.0313 Q180.5156,221.6406 180.2813,221.9063 Q180.0625,222.1563 179.6719,222.1563 Q179.2969,222.1563 179.0625,221.9063 Q178.8281,221.6406 178.8281,221.0313 L178.8281,220.1406 L174.8594,220.1406 L174.8594,222.5938 L176.3438,222.5938 Q176.3438,221.9375 176.4688,221.75 Q176.7344,221.3438 177.2031,221.3438 Q177.5781,221.3438 177.8125,221.6094 Q178.0469,221.8594 178.0469,222.4688 L178.0469,224.4375 Q178.0469,224.9844 177.9219,225.1719 Q177.6563,225.5625 177.2031,225.5625 Q176.7344,225.5625 176.4688,225.1563 Q176.3438,224.9688 176.3438,224.2969 L174.8594,224.2969 Z " fill="#000000"/><text fill="#000000" font-family="sans-serif" font-size="14" lengthAdjust="spacing" textLength="103.4756" x="190" y="229.2969">TipoTransmision</text><line style="stroke:#181818;stroke-width:0.5;" x1="162" x2="295.4756" y1="239.5" y2="239.5"/><text fill="#000000" font-family="sans-serif" font-size="14" lengthAdjust="spacing" textLength="58.3447" x="167" y="258.6074">MANUAL</text><text fill="#000000" font-family="sans-serif" font-size="14" lengthAdjust="spacing" textLength="91.7793" x="167" y="277.2285">AUTOMATICA</text><line style="stroke:#181818;stroke-width:0.5;" x1="162" x2="295.4756" y1="284.7422" y2="284.7422"/></g><!--link Coche to Vehiculo--><g id="link_Coche_Vehiculo"><path codeLine="109" d="M949.08,311.34 C976.4,336.11 996.2934,354.1313 1030.4934,385.1313 " fill="none" id="Coche-to-Vehiculo" style="stroke:#181818;stroke-width:1.0;"/><polygon fill="none" points="1043.83,397.22,1034.523,380.6858,1026.4639,389.5768,1043.83,397.22" style="stroke:#181818;stroke-width:1.0;"/></g><!--link Moto to Vehiculo--><g id="link_Moto_Vehiculo"><path codeLine="110" d="M1245.5,311.34 C1245.5,328.97 1245.5,331.3 1245.5,352.73 " fill="none" id="Moto-to-Vehiculo" style="stroke:#181818;stroke-width:1.0;"/><polygon fill="none" points="1245.5,370.73,1251.5,352.73,1239.5,352.73,1245.5,370.73" style="stroke:#181818;stroke-width:1.0;"/></g><!--link Camion to Vehiculo--><g id="link_Camion_Vehiculo"><path codeLine="111" d="M1448.01,311.34 C1434.73,328.97 1430.2332,334.925 1414.0832,356.355 " fill="none" id="Camion-to-Vehiculo" style="stroke:#181818;stroke-width:1.0;"/><polygon fill="none" points="1403.25,370.73,1418.8749,359.9661,1409.2916,352.7439,1403.25,370.73" style="stroke:#181818;stroke-width:1.0;"/></g><!--link Sedan to Coche--><g id="link_Sedan_Coche"><path codeLine="112" d="M640.16,110.52 C680.86,133.78 716.7014,154.2599 761.7314,179.9899 " fill="none" id="Sedan-to-Coche" style="stroke:#181818;stroke-width:1.0;"/><polygon fill="none" points="777.36,188.92,764.7081,174.7803,758.7547,185.1994,777.36,188.92" style="stroke:#181818;stroke-width:1.0;"/></g><!--link SUV to Coche--><g id="link_SUV_Coche"><path codeLine="113" d="M813.37,110.75 C824.95,133.91 831.5102,147.0203 844.3102,172.6203 " fill="none" id="SUV-to-Coche" style="stroke:#181818;stroke-width:1.0;"/><polygon fill="none" points="852.36,188.72,849.6767,169.937,838.9436,175.3036,852.36,188.72" style="stroke:#181818;stroke-width:1.0;"/></g><!--link Deportivo to Coche--><g id="link_Deportivo_Coche"><path codeLine="114" d="M979.18,120.1 C963.12,141.51 955.131,152.1608 938.411,174.4508 " fill="none" id="Deportivo-to-Coche" style="stroke:#181818;stroke-width:1.0;"/><polygon fill="none" points="927.61,188.85,943.2108,178.0511,933.6113,170.8504,927.61,188.85" style="stroke:#181818;stroke-width:1.0;"/></g><!--link Scooter to Moto--><g id="link_Scooter_Moto"><path codeLine="115" d="M1245.5,101.6 C1245.5,125.91 1245.5,141.82 1245.5,170.98 " fill="none" id="Scooter-to-Moto" style="stroke:#181818;stroke-width:1.0;"/><polygon fill="none" points="1245.5,188.98,1251.5,170.98,1239.5,170.98,1245.5,188.98" style="stroke:#181818;stroke-width:1.0;"/></g><!--link Deportiva to Moto--><g id="link_Deportiva_Moto"><path codeLine="116" d="M1422.44,110.52 C1392.73,133.78 1369.3139,152.0949 1336.4439,177.8249 " fill="none" id="Deportiva-to-Moto" style="stroke:#181818;stroke-width:1.0;"/><polygon fill="none" points="1322.27,188.92,1340.1423,182.5496,1332.7456,173.1003,1322.27,188.92" style="stroke:#181818;stroke-width:1.0;"/></g><!--link Vehiculo to Valorable--><g id="link_Vehiculo_Valorable"><path codeLine="117" d="M1325.8,791.08 C1340.28,828.79 1347.2382,846.896 1356.4682,870.936 " fill="none" id="Vehiculo-to-Valorable" style="stroke:#181818;stroke-width:1.0;stroke-dasharray:7.0,7.0;"/><polygon fill="none" points="1362.92,887.74,1362.0695,868.7854,1350.8669,873.0866,1362.92,887.74" style="stroke:#181818;stroke-width:1.0;"/></g><!--reverse link Vehiculo to Persona--><g id="link_Vehiculo_Persona"><path codeLine="118" d="M1160.8979,802.2823 C1152.7179,823.5823 1149.19,832.78 1142.25,850.84 " fill="none" id="Vehiculo-backto-Persona" style="stroke:#181818;stroke-width:1.0;"/><polygon fill="#181818" points="1165.2,791.08,1159.3148,795.2471,1160.8979,802.2823,1166.7831,798.1152,1165.2,791.08" style="stroke:#181818;stroke-width:1.0;"/></g><!--link Validar to InvalidDNI--><g id="link_Validar_InvalidDNI"><path codeLine="119" d="M1721.5,101.6 C1721.5,134.12 1721.5,177.8 1721.5,210.34 " fill="none" id="Validar-to-InvalidDNI" style="stroke:#181818;stroke-width:1.0;stroke-dasharray:7.0,7.0;"/><polygon fill="#181818" points="1721.5,216.34,1725.5,207.34,1721.5,211.34,1717.5,207.34,1721.5,216.34" style="stroke:#181818;stroke-width:1.0;"/></g><!--SRC=[ZLPDSzis4BtpL_1MfweyxanEEcI6ffYM4ubIHLcJwufSoN18G0L0JQT9_diN80X-o6xYYy4btjlTjnyK79MMKEYmg42fy83Fh6Wg4NuDGlgRXpLeQIom27CwyREto-B69aginCG8d3Fn4Ox40WKJV14ohjsxBwmIDPB_5noQBnBfvY8iHNEiq1bHQIZ9cDZ_NPmU8IuCDKW3sw9KWeDzDGibdfb9KNQGEzxWrHCiVChl5k5LiDB1AW8DCEz6MSt2OwEAmUiRbQRtGR4p_p_0Rw_cC8v9ecfgv3k6wlmpFWlTGCN-1Vcfr_arprQGJxKjmTZZ6NL4vLCc_wu-Cwgp5NJR1toZZxkoH5L8TZ5rV-lArXRRl1sKUnOMK1cXNAvll5sYRHNe-DsTxq7RpB4edj5tCc_gRODIWnhsccON4OkQwgaPOHVXVcnmrmgua9SIoZLKg56A4GSDKDlQUtVo8UHO0lSXe38i8kN4m8IST3XdLwnYmKz2waMO3PvwkgU39_CXRKudAQ1SX4SXAWJU3Lwb6mahTfIODtOk9_AGUiJDhlsmGu4LIYld0_p-y309y28qSf8xFemLH8vhKOgj6Pa-YixDMkZUGy4gnai99Om67jL8q3RqI16pdku1Kp2IcQkQgLRpiQ7NgX0KhvoA_mWlOieyLGGyY6eWNDt_OJNSn4Af_zMmual-p4xax3Rx66eAwhPeCSZpb8uwD7d1KNjMWf-PRieTrgBwky4tAc8qbYskStoWqI-XItyMNjldPPRUbPmDTeOTzmwLSdkFRdbWRxgZvQFihdPW3tFhgfyr6Y29qo_11IiY4cfY7uJZB2SidY66ikcauaWJiH8qzalGEFooP2HdxQhPfi_CT9sebOq4GWAfvNFvqTu8VWcJx6aT14Yrc7ng7CaopRURB7rS9VRna6JBTBanM8kPh0y7-YFADwiqYnn3aYShU_mpVTmPj3adgoJUxz9umEMsIUSvMKNPFjcrBFjTb7Vdzv_VUz1mRpZWOvGRMdDS9ykqFMrtoJgbL8U13yR8GTTHzXIriKPF-yqwsgTnP33jRftFlttm7z30JlhOvDf_R6oNehLPci2ijS5ZlvY6TzmuMvFn5FJJsjjyiUxlZSUk0Nhxh_Ev_u7GZSZz_OT1bmV_0G00]--></g></svg>